<?xml version="1.0" encoding="UTF-8" standalone="no"?>
<svg
   xmlns:dc="http://purl.org/dc/elements/1.1/"
   xmlns:cc="http://creativecommons.org/ns#"
   xmlns:rdf="http://www.w3.org/1999/02/22-rdf-syntax-ns#"
   xmlns:svg="http://www.w3.org/2000/svg"
   xmlns="http://www.w3.org/2000/svg"
   xmlns:sodipodi="http://sodipodi.sourceforge.net/DTD/sodipodi-0.dtd"
   xmlns:inkscape="http://www.inkscape.org/namespaces/inkscape"
   width="210mm"
   height="297mm"
   viewBox="0 0 210 297"
   version="1.1"
   id="svg8"
   inkscape:version="1.0.2-2 (e86c870879, 2021-01-15)"
   sodipodi:docname="koji.svg">
  <defs
     id="defs2">
    <rect
       x="59.342262"
       y="198.4375"
       width="52.538688"
       height="23.434524"
       id="rect38" />
    <rect
       x="59.342262"
       y="198.4375"
       width="52.538689"
       height="23.434525"
       id="rect38-3" />
    <rect
       x="59.342262"
       y="198.4375"
       width="52.538689"
       height="23.434525"
       id="rect51" />
  </defs>
  <sodipodi:namedview
     id="base"
     pagecolor="#ffffff"
     bordercolor="#666666"
     borderopacity="1.0"
     inkscape:pageopacity="0.0"
     inkscape:pageshadow="2"
     inkscape:zoom="0.7"
     inkscape:cx="439.93679"
     inkscape:cy="552.61231"
     inkscape:document-units="mm"
     inkscape:current-layer="layer1"
     inkscape:document-rotation="0"
     showgrid="false"
     inkscape:window-width="1639"
     inkscape:window-height="1198"
     inkscape:window-x="208"
     inkscape:window-y="163"
     inkscape:window-maximized="0" />
  <metadata
     id="metadata5">
    <rdf:RDF>
      <cc:Work
         rdf:about="">
        <dc:format>image/svg+xml</dc:format>
        <dc:type
           rdf:resource="http://purl.org/dc/dcmitype/StillImage" />
        <dc:title />
      </cc:Work>
    </rdf:RDF>
  </metadata>
  <g
     inkscape:label="レイヤー 1"
     inkscape:groupmode="layer"
     id="layer1">
    <path
       style="fill:none;stroke:#000000;stroke-width:0.374287px;stroke-linecap:butt;stroke-linejoin:miter;stroke-opacity:1"
       d="M 64.716958,231.52154 95.797171,101.19297 c 0,0 4.729599,-14.810062 11.823989,-14.810062 7.0944,0 11.82401,12.694341 11.82401,12.694341 l 33.445,130.328551 h 14.1888 v 17.77209 H 48.163367 v -15.65636 z"
       id="path10"
       sodipodi:nodetypes="ccsccccccc" />
    <path
       style="fill:none;stroke:#000000;stroke-width:0.374287px;stroke-linecap:butt;stroke-linejoin:miter;stroke-opacity:1"
       d="M 64.716956,231.52154 152.89017,229.4058"
       id="path12" />
    <path
       style="fill:none;stroke:#000000;stroke-width:0.374287px;stroke-linecap:butt;stroke-linejoin:miter;stroke-opacity:1"
       d="m 93.263456,111.77159 h 29.391064 l 2.81141,10.69435 -34.905101,0.0749 z"
       id="path22"
       sodipodi:nodetypes="ccccc" />
    <path
       style="fill:none;stroke:#000000;stroke-width:0.374287px;stroke-linecap:butt;stroke-linejoin:miter;stroke-opacity:1"
       d="m 87.520375,135.46769 41.510665,0.0529 4.0299,17.00851 H 83.63535 Z"
       id="path24"
       sodipodi:nodetypes="ccccc" />
    <path
       style="fill:#d40000;stroke-width:0.378087"
       d="m 65.345711,230.3841 c 0.504078,-1.9893 18.413476,-77.1761 18.413476,-77.303 0,-0.0768 11.059654,-0.13804 24.577013,-0.13603 l 24.57702,0.004 9.6068,37.55043 c 5.28374,20.65274 9.66192,37.75993 9.72929,38.01598 0.13157,0.50005 -1.24933,0.54687 -48.38934,1.64072 -14.492832,0.3363 -29.13593,0.71662 -32.540211,0.84517 -6.087611,0.22987 -6.186048,0.21971 -5.974048,-0.61693 z"
       id="path26" />
    <path
       style="fill:#d40000;stroke-width:0.378087"
       d="m 88.235466,134.42884 c 0.08982,-0.40728 0.741545,-3.1683 1.448273,-6.1356 l 1.284958,-5.3951 h 17.105193 17.10519 l 0.7969,3.0678 c 0.43829,1.68729 1.14055,4.44831 1.56057,6.1356 l 0.76367,3.0678 h -20.11403 c -18.993222,0 -20.104938,-0.0413 -19.950724,-0.7405 z"
       id="path28" />
    <path
       style="fill:#d40000;stroke-width:0.378087"
       d="m 93.894037,111.14855 c 0,-0.17858 0.528999,-2.57646 1.175555,-5.32861 1.355969,-5.77188 2.982361,-9.803659 5.499948,-13.634224 4.40862,-6.707824 9.21378,-6.976187 14.07737,-0.786214 2.66877,3.396589 4.29316,7.105009 5.91992,13.514988 0.76783,3.02549 1.46074,5.73891 1.53982,6.02982 0.11351,0.4176 -2.84041,0.52893 -14.03442,0.52893 -7.79801,0 -14.178193,-0.14611 -14.178193,-0.32469 z"
       id="path30" />
    <path
       style="fill:#550000;stroke-width:0.378087"
       d="m 48.625032,239.4745 v -7.40503 l 6.334282,-0.008 c 3.483856,-0.005 21.308526,-0.387 39.610381,-0.8498 18.301855,-0.46282 42.055415,-0.9657 52.785685,-1.11753 l 19.50959,-0.27605 v 8.53089 8.53089 H 107.745 48.625032 Z"
       id="path32" />
    <path
       style="fill:#333333;stroke-width:0.378087"
       d="m 48.625032,239.4745 v -7.40503 l 9.88148,-0.002 c 5.434814,-10e-4 21.663248,-0.28439 36.063183,-0.62934 21.329195,-0.51094 67.552825,-1.47053 71.366245,-1.48154 l 0.92903,-0.003 v 8.46267 8.46289 H 107.745 48.625032 Z"
       id="path34" />
  </g>
</svg>
